#!OML:ASF I:\Actors\actors\Patient Classification 1\Patient 1\Session 1\Subject1.ASF
:FULLY-SPECIFIED
:DEGREES
315
root -0.439767 17.5607 8.37897 7.4962 5.73101 -8.86081
lowerback 6.90942 4.43453 4.23032
upperback -9.55444 6.32557 -2.84811
thorax -13.5799 2.40009 -6.65369
lowerneck -6.59486 -12.103 -12.1868
upperneck 8.3253 -18.3123 24.3902
head 7.19889 -8.12553 8.0429
rclavicle 3.69739e-014 3.18055e-014
rhumerus -25.8453 35.5519 -75.0815
rradius 124.989
rwrist -13.0391
rhand 9.38247 -50.5214
rfingers 7.12502
rthumb 34.5404 -77.1836
lclavicle 3.69739e-014 3.18055e-014
lhumerus -16.5653 -18.0791 93.1994
lradius 149.348
lwrist -329.96
lhand -4.83753 -25.7508
lfingers 7.12502
lthumb 20.9495 3.13791
rfemur -4.19462 17.5819 26.0378
rtibia 8.43418
rfoot -15.7161 -24.7863
rtoes 0.592828
lfemur -0.618667 -30.9057 -8.43545
ltibia 0.380919
lfoot -9.97535 35.5831
ltoes -8.1788
316
root -0.441178 17.5509 8.37055 7.3012 4.62106 -8.61209
lowerback 7.22699 3.33188 3.7859
upperback -9.5076 4.83614 -2.23396
thorax -14.0166 1.74989 -5.51036
lowerneck -7.6612 -10.9804 -11.0779
upperneck 9.47376 -16.8481 23.4938
head 7.26172 -7.3049 7.75238
rclavicle 4.45278e-014 -9.54166e-015
rhumerus -27.6081 36.9843 -78.084
rradius 126.173
rwrist -12.2643
rhand 13.6856 -49.9009
rfingers 7.12502
rthumb 38.613 -75.5307
lclavicle 4.45278e-014 -9.54166e-015
lhumerus -10.9089 -18.7235 91.9981
lradius 148.675
lwrist -330.086
lhand -5.85476 -26.3903
lfingers 7.12502
lthumb 19.972 2.60333
rfemur -4.26119 17.691 25.7109
rtibia 8.83308
rfoot -15.4355 -24.1493
rtoes -0.276755
lfemur -0.101221 -30.2953 -9.05185
ltibia 0.590537
lfoot -10.4672 35.675
ltoes -7.02173
317
root -0.4395 17.551 8.36554 7.2236 3.30508 -8.65775
lowerback 7.5051 2.20212 3.55862
upperback -9.50224 3.35309 -1.50877
thorax -14.4166 1.10035 -4.33069
lowerneck -8.99586 -9.67387 -9.68274
upperneck 10.9165 -15.2227 22.5399
head 7.44618 -6.36776 7.40403
rclavicle 3.93594e-014 4.13472e-014
rhumerus -28.6997 39.4754 -79.9734
rradius 127.255
rwrist -13.4082
rhand 10.5597 -50.0593
rfingers 7.12502
rthumb 35.657 -76.4593
lclavicle 3.93594e-014 4.13472e-014
lhumerus -4.85196 -19.2675 89.0293
lradius 146.94
lwrist -330.637
lhand -5.69519 -25.2704
lfingers 7.12502
lthumb 20.1253 3.70716
rfemur -4.47541 17.6743 25.6371
rtibia 9.19826
rfoot -15.0763 -23.0993
rtoes -1.34583
lfemur 0.331145 -29.5779 -9.30633
ltibia 0.83493
lfoot -11.1663 35.9646
ltoes -5.38305
318
root -0.435672 17.5611 8.36324 7.38187 1.74135 -8.88223
lowerback 7.6651 1.2193 3.40606
upperback -9.56263 2.08175 -0.765867
thorax -14.749 0.55577 -3.18286
lowerneck -10.2039 -8.35988 -7.90944
upperneck 12.1771 -13.6349 21.4881
head 7.56909 -5.45769 6.94605
rclavicle 3.08116e-014 9.54166e-015
rhumerus -28.7546 41.0823 -80.2667
rradius 128.054
rwrist -13.5471
rhand 11.2734 -50.0917
rfingers 7.12502
rthumb 36.3331 -76.3257
lclavicle 3.08116e-014 9.54166e-015
lhumerus 1.30357 -19.4275 84.4656
lradius 144.568
lwrist -330.528
lhand -5.8647 -25.0115
lfingers 7.12502
lthumb 19.9624 3.98318
rfemur -4.93656 17.6511 25.6627
rtibia 9.48592
rfoot -14.6021 -21.75
rtoes -2.61295
lfemur 0.65422 -28.9538 -9.32806
ltibia 0.98609
lfoot -11.9066 36.6983
ltoes -3.73914
319
root -0.430294 17.5765 8.36028 7.74809 -0.0705473 -9.0723
lowerback 7.71993 0.391028 3.04635
upperback -9.68097 0.988841 -0.0161793
thorax -15.0306 0.126514 -1.92816
lowerneck -10.9767 -7.00704 -5.92772
upperneck 13.166 -12.0201 20.3892
head 7.5601 -4.5704 6.43939
rclavicle 2.5842e-015 0
rhumerus -27.3381 43.4362 -78.6898
rradius 128.582
rwrist -14.4138
rhand 10.5143 -50.3767
rfingers 7.12502
rthumb 35.614 -76.7871
lclavicle 2.5842e-015 0
lhumerus 7.23076 -18.8828 78.7157
lradius 141.544
lwrist -329.281
lhand -5.44702 -24.4275
lfingers 7.12502
lthumb 20.3639 4.52486
rfemur -5.56154 17.7556 25.5751
rtibia 9.64058
rfoot -14.0558 -20.2632
rtoes -3.7784
lfemur 0.965019 -28.3848 -9.37418
ltibia 0.918163
lfoot -12.8105 37.7195
ltoes -1.88922
320
root -0.421652 17.5935 8.35459 8.23433 -2.14518 -9.1498
lowerback 7.57113 -0.330882 2.30285
upperback -9.62875 -0.0132571 0.845511
thorax -14.9192 -0.198273 -0.344785
lowerneck -11.7747 -5.62271 -4.00694
upperneck 13.9291 -10.3459 19.2764
head 7.53881 -3.67042 5.93287
rclavicle -5.36719e-015 -4.77083e-015
rhumerus -25.7641 44.4977 -76.4956
rradius 129.103
rwrist -14.9689
rhand 10.8663 -49.943
rfingers 7.12502
rthumb 35.9475 -76.2724
lclavicle -5.36719e-015 -4.77083e-015
lhumerus 12.9732 -17.1921 72.4948
lradius 137.773
lwrist -327.251
lhand -3.64811 -23.3771
lfingers 7.12502
lthumb 22.0918 5.38086
rfemur -6.26476 18.0833 25.3093
rtibia 9.6807
rfoot -13.4444 -18.7174
rtoes -5.02512
lfemur 1.31258 -27.7609 -9.57128
ltibia 0.686843
lfoot -13.9539 38.8521
ltoes 0.386965
321
root -0.410063 17.6103 8.34451 8.79262 -4.37696 -9.1124
lowerback 7.08445 -0.972715 1.08417
upperback -9.21681 -0.970303 1.84235
thorax -14.0891 -0.449892 1.616
lowerneck -12.7706 -4.22219 -2.23566
upperneck 14.2265 -8.6083 18.2908
head 7.47034 -2.75727 5.48739
rclavicle 1.16289e-014 1.98785e-014
rhumerus -20.6008 45.7729 -71.0295
rradius 129.083
rwrist -15.0893
rhand 14.1421 -49.5498
rfingers 7.12502
rthumb 39.0435 -75.0573
lclavicle 1.16289e-014 1.98785e-014
lhumerus 18.6453 -15.2124 65.8392
lradius 132.774
lwrist -328.154
lhand -4.86066 -23.8709
lfingers 7.12502
lthumb 20.9273 5.02019
rfemur -7.05383 18.7006 24.8595
rtibia 9.66253
rfoot -12.8241 -17.2509
rtoes -5.9068
lfemur 1.5928 -27.0982 -9.9002
ltibia 0.438044
lfoot -15.0819 40.0327
ltoes 2.43501
322
root -0.392922 17.6264 8.32971 9.37752 -6.46829 -8.97992
lowerback 7.40474 -1.48757 0.343441
upperback -9.27949 -1.71085 2.40934
thorax -14.3154 -0.682765 2.81765
lowerneck -13.1772 -3.07389 -0.549585
upperneck 14.5548 -7.30397 17.6427
head 7.42177 -2.05848 5.12986
rclavicle 5.56597e-015 -9.54166e-015
rhumerus -18.5574 46.2208 -67.9575
rradius 129.637
rwrist -15.7424
rhand 14.1157 -49.1865
rfingers 7.12502
rthumb 39.0186 -74.7012
lclavicle 5.56597e-015 -9.54166e-015
lhumerus 23.1914 -13.5276 59.0188
lradius 127.109
lwrist -328.71
lhand -5.59675 -24.5538
lfingers 7.12502
lthumb 20.22 4.41384
rfemur -7.8961 19.304 24.2519
rtibia 9.56482
rfoot -12.1473 -15.9278
rtoes -6.38538
lfemur 1.72305 -26.641 -10.3249
ltibia 0.244705
lfoot -16.2657 41.2099
ltoes 4.42506
323
root -0.370902 17.6439 8.31457 9.9305 -8.19761 -8.78637
lowerback 7.50723 -1.99915 -0.581371
upperback -9.12555 -2.46816 3.09389
thorax -14.0964 -0.904957 4.24198
lowerneck -13.6071 -2.05184 0.958185
upperneck 14.5903 -6.07504 16.8066
head 7.31963 -1.43872 4.72363
rclavicle -3.01656e-014 4.41302e-014
rhumerus -14.7261 47.3897 -63.3529
rradius 130.29
rwrist -17.2076
rhand 11.5265 -49.765
rfingers 7.12502
rthumb 36.5727 -75.9388
lclavicle -3.01656e-014 4.41302e-014
lhumerus 27.283 -11.568 52.6083
lradius 120.839
lwrist -328.488
lhand -6.07963 -25.1364
lfingers 7.12502
lthumb 19.7558 3.87964
rfemur -8.64956 19.6918 23.5979
rtibia 9.30861
rfoot -11.3414 -14.8736
rtoes -7.25404
lfemur 1.80153 -26.6632 -10.8541
ltibia 0.0289387
lfoot -17.5505 42.4461
ltoes 6.51443
324
root -0.348172 17.664 8.2981 10.4927 -9.46942 -8.66763
lowerback 7.8228 -2.46973 -1.25393
upperback -9.06014 -3.14246 3.70258
thorax -14.103 -1.11465 5.44665
lowerneck -14.162 -1.2194 2.19612
upperneck 14.8236 -5.13721 16.0843
head 7.36796 -0.945689 4.37918
rclavicle -1.56046e-014 3.10104e-014
rhumerus -12.1586 47.5457 -59.5302
rradius 130.921
rwrist -17.8899
rhand 10.6591 -50.4563
rfingers 7.12502
rthumb 35.7512 -76.8335
lclavicle -1.56046e-014 3.10104e-014
lhumerus 30.6979 -10.0066 46.6778
lradius 114.09
lwrist -326.567
lhand -6.30331 -25.7093
lfingers 7.12502
lthumb 19.5408 3.32875
rfemur -9.30829 19.9767 23.0768
rtibia 8.91513
rfoot -10.5507 -14.2525
rtoes -8.31064
lfemur 1.72075 -27.06 -11.2143
ltibia -0.179874
lfoot -18.8665 43.6326
ltoes 8.52235
325
root -0.326202 17.687 8.27765 11.0292 -10.214 -8.63928
lowerback 8.20531 -2.9653 -1.72604
upperback -8.98978 -3.82762 4.28737
thorax -14.1276 -1.3509 6.5268
lowerneck -14.9148 -0.536175 2.95052
upperneck 15.2927 -4.46746 15.862
head 7.59204 -0.541721 4.26859
rclavicle 1.00635e-014 -1.03368e-014
rhumerus -10.1797 47.1538 -56.2371
rradius 131.457
rwrist -18.1185
rhand 8.82647 -50.6362
rfingers 7.12502
rthumb 34.0125 -77.4172
lclavicle 1.00635e-014 -1.03368e-014
lhumerus 33.5796 -8.86929 41.1354
lradius 106.738
lwrist -323.691
lhand -5.29951 -25.0949
lfingers 7.12502
lthumb 20.5056 3.84217
rfemur -9.82808 20.2464 22.7089
rtibia 8.43311
rfoot -9.93142 -14.0921
rtoes -8.74822
lfemur 1.4048 -27.6706 -11.2891
ltibia -0.29975
lfoot -20.0181 44.5781
ltoes 10.1104
326
root -0.305017 17.7114 8.25453 11.4983 -10.5232 -8.62967
lowerback 8.57134 -3.51086 -2.15645
upperback -8.89133 -4.57873 4.86925
thorax -14.0748 -1.62755 7.59612
lowerneck -15.5712 -0.233263 3.00082
upperneck 15.3829 -4.20327 16.1579
head 7.73314 -0.356234 4.39985
rclavicle 9.77772e-015 1.50082e-014
rhumerus -8.61454 46.1957 -53.4967
rradius 131.322
rwrist -17.8835
rhand 12.0954 -49.4313
rfingers 7.12502
rthumb 37.111 -75.467
lclavicle 9.77772e-015 1.50082e-014
lhumerus 35.8951 -8.1499 36.1628
lradius 98.7662
lwrist -321.071
lhand -3.25143 -23.3361
lfingers 7.12502
lthumb 22.4726 5.37632
rfemur -10.1856 20.5126 22.4179
rtibia 7.85264
rfoot -9.40958 -14.2925
rtoes -8.5691
lfemur 0.876351 -28.0896 -11.1317
ltibia -0.313928
lfoot -20.5693 45.0062
ltoes 10.8734
327
root -0.284457 17.732 8.22996 11.9296 -10.6435 -8.70228
lowerback 8.89979 -3.997 -2.51267
upperback -8.82475 -5.23845 5.46516
thorax -14.0276 -1.86829 8.6289
lowerneck -15.9315 0.130295 3.45468
upperneck 15.4383 -3.82005 15.9512
head 7.77919 -0.15009 4.30304
rclavicle 1.50843e-014 -1.70209e-014
rhumerus -7.87138 45.5312 -51.452
rradius 131.387
rwrist -18.1008
rhand 12.6226 -49.0489
rfingers 7.12502
rthumb 37.6094 -74.9533
lclavicle 1.50843e-014 -1.70209e-014
lhumerus 37.8948 -8.63888 31.6139
lradius 88.5372
lwrist -321.464
lhand -4.17183 -23.1397
lfingers 7.12502
lthumb 21.5889 5.67689
rfemur -10.4813 20.7481 22.2537
rtibia 7.26718
rfoot -8.95416 -14.6331
rtoes -8.1573
lfemur 0.252634 -28.1353 -10.7702
ltibia -0.259885
lfoot -20.5236 44.9823
ltoes 11.0632
328
root -0.264876 17.7474 8.20752 12.2397 -10.6269 -8.7464
lowerback 9.03652 -4.3734 -2.87081
upperback -8.72872 -5.75377 6.02277
thorax -13.8301 -2.0557 9.56998
lowerneck -16.3246 0.370143 3.79496
upperneck 15.7086 -3.60801 15.6866
head 7.91581 -0.0208189 4.19372
rclavicle 1.23868e-014 -1.74931e-014
rhumerus -7.68658 45.3299 -49.8397
rradius 131.666
rwrist -18.6827
rhand 9.25672 -48.8074
rfingers 7.12502
rthumb 34.421 -75.4967
lclavicle 1.23868e-014 -1.74931e-014
lhumerus 40.3703 -10.0396 27.2262
lradius 76.5794
lwrist -321.92
lhand -4.78712 -22.3018
lfingers 7.12502
lthumb 20.9979 6.58145
rfemur -10.6542 20.8803 22.1128
rtibia 6.74628
rfoot -8.624 -15.0002
rtoes -7.9099
lfemur -0.258344 -28.0981 -10.5052
ltibia -0.175901
lfoot -20.1779 44.8133
ltoes 10.9386
329
root -0.24529 17.7605 8.18873 12.3289 -10.4373 -8.56372
lowerback 9.04557 -4.70898 -3.33995
upperback -8.59187 -6.24386 6.46635
thorax -13.492 -2.24235 10.4149
lowerneck -16.6797 0.567977 3.7953
upperneck 16.1592 -3.44472 15.673
head 8.12006 0.0983336 4.2277
rclavicle 1.0312e-014 -6.32135e-014
rhumerus -7.72327 44.9272 -48.5944
rradius 131.271
rwrist -18.6626
rhand 10.4177 -48.9909
rfingers 7.12502
rthumb 35.5224 -75.4233
lclavicle 1.0312e-014 -6.32135e-014
lhumerus 44.2093 -12.2613 23.3119
lradius 61.9129
lwrist -323.305
lhand -5.6332 -22.5463
lfingers 7.12502
lthumb 20.1849 6.42499
rfemur -10.6161 20.9923 21.7785
rtibia 6.29514
rfoot -8.44836 -15.4851
rtoes -7.59593
lfemur -0.601977 -28.1984 -10.5994
ltibia -0.0931382
lfoot -19.8582 44.6264
ltoes 10.9427
